<svg width="220" height="40" viewBox="0 0 220 40" fill="none" xmlns="http://www.w3.org/2000/svg">
<rect width="220" height="40" rx="8" fill="url(#paint0_linear_24_12)"/>
<rect x="1.07143" y="1.07143" width="217.857" height="37.8571" rx="6.92857" stroke="white" stroke-opacity="0.15" stroke-width="2.14286"/>
<g filter="url(#filter0_d_24_12)">
<path d="M29.3802 16.6647C29.3802 16.6647 35.0971 15.7395 36 13.0411H27.2424V10.9H8L10.3704 13.7229V16.6152C10.3704 16.6152 16.3516 16.296 18.6652 18.0966C21.8321 21.1092 15.1033 25.1814 15.1033 25.1814L13.9494 29.1C15.7538 27.3367 19.1926 25.0558 25.4977 25.1658C23.0982 25.9441 20.6856 27.1596 18.8074 29.1H31.5531L30.3528 25.1814C30.3528 25.1814 21.1151 19.5908 29.3802 16.6647Z" fill="#F16436"/>
</g>
<g filter="url(#filter1_d_24_12)">
<path d="M53.0234 14.1364V26.5H51.1641V15.7301H45.3445V26.5H43.4851V14.1364H53.0234ZM59.6369 26.6871C58.7676 26.6871 58.0089 26.4879 57.361 26.0895C56.713 25.691 56.2099 25.1336 55.8517 24.4173C55.4935 23.7009 55.3144 22.8638 55.3144 21.9059C55.3144 20.944 55.4935 20.1029 55.8517 19.3825C56.2099 18.662 56.713 18.1026 57.361 17.7042C58.0089 17.3058 58.7676 17.1065 59.6369 17.1065C60.5062 17.1065 61.2648 17.3058 61.9128 17.7042C62.5608 18.1026 63.0639 18.662 63.422 19.3825C63.7802 20.1029 63.9593 20.944 63.9593 21.9059C63.9593 22.8638 63.7802 23.7009 63.422 24.4173C63.0639 25.1336 62.5608 25.691 61.9128 26.0895C61.2648 26.4879 60.5062 26.6871 59.6369 26.6871ZM59.6429 25.1719C60.2064 25.1719 60.6732 25.023 61.0435 24.7251C61.4138 24.4273 61.6874 24.0309 61.8645 23.5359C62.0456 23.0408 62.1362 22.4955 62.1362 21.8999C62.1362 21.3082 62.0456 20.7649 61.8645 20.2699C61.6874 19.7708 61.4138 19.3704 61.0435 19.0685C60.6732 18.7667 60.2064 18.6158 59.6429 18.6158C59.0755 18.6158 58.6046 18.7667 58.2303 19.0685C57.86 19.3704 57.5843 19.7708 57.4032 20.2699C57.2261 20.7649 57.1376 21.3082 57.1376 21.8999C57.1376 22.4955 57.2261 23.0408 57.4032 23.5359C57.5843 24.0309 57.86 24.4273 58.2303 24.7251C58.6046 25.023 59.0755 25.1719 59.6429 25.1719ZM67.743 23.9705L71.83 17.2273H73.7739V26.5H72.0051V19.7507L67.9362 26.5H65.9742V17.2273H67.743V23.9705ZM80.1066 26.6871C79.2091 26.6871 78.4364 26.4839 77.7884 26.0774C77.1445 25.6669 76.6495 25.1014 76.3033 24.381C75.9572 23.6606 75.7842 22.8356 75.7842 21.9059C75.7842 20.9641 75.9613 20.133 76.3154 19.4126C76.6696 18.6882 77.1686 18.1227 77.8126 17.7163C78.4565 17.3098 79.2152 17.1065 80.0885 17.1065C80.7928 17.1065 81.4207 17.2373 81.972 17.4989C82.5234 17.7565 82.9681 18.1187 83.3062 18.5856C83.6483 19.0524 83.8515 19.5978 83.9159 20.2216H82.1592C82.0626 19.7869 81.8412 19.4126 81.4951 19.0987C81.153 18.7848 80.6942 18.6278 80.1187 18.6278C79.6156 18.6278 79.1749 18.7607 78.7966 19.0263C78.4223 19.2879 78.1305 19.6622 77.9212 20.1491C77.712 20.6321 77.6073 21.2036 77.6073 21.8636C77.6073 22.5398 77.71 23.1233 77.9152 23.6143C78.1205 24.1053 78.4102 24.4857 78.7845 24.7553C79.1628 25.025 79.6076 25.1598 80.1187 25.1598C80.4608 25.1598 80.7707 25.0974 81.0484 24.9727C81.3301 24.8439 81.5655 24.6607 81.7547 24.4233C81.9479 24.1858 82.0827 23.9001 82.1592 23.566H83.9159C83.8515 24.1657 83.6563 24.701 83.3303 25.1719C83.0043 25.6428 82.5677 26.013 82.0203 26.2827C81.477 26.5523 80.8391 26.6871 80.1066 26.6871ZM85.8462 26.5V17.2273H87.6513V21.1151H88.5206L91.5813 17.2273H93.815L90.223 21.7369L93.8572 26.5H91.6175L88.8224 22.7933H87.6513V26.5H85.8462ZM99.7583 26.5V17.2273H103.604C104.65 17.2273 105.479 17.4506 106.091 17.8974C106.703 18.3401 107.009 18.9418 107.009 19.7024C107.009 20.2457 106.836 20.6764 106.49 20.9943C106.143 21.3123 105.685 21.5256 105.113 21.6342C105.528 21.6825 105.908 21.8073 106.254 22.0085C106.6 22.2057 106.878 22.4714 107.087 22.8054C107.3 23.1394 107.407 23.5379 107.407 24.0007C107.407 24.4917 107.28 24.9264 107.027 25.3047C106.773 25.679 106.405 25.9728 105.922 26.1861C105.443 26.3954 104.866 26.5 104.189 26.5H99.7583ZM101.455 24.9908H104.189C104.636 24.9908 104.986 24.8841 105.24 24.6708C105.493 24.4575 105.62 24.1677 105.62 23.8015C105.62 23.3709 105.493 23.0328 105.24 22.7873C104.986 22.5378 104.636 22.413 104.189 22.413H101.455V24.9908ZM101.455 21.0909H103.622C103.96 21.0909 104.25 21.0426 104.491 20.946C104.737 20.8494 104.924 20.7126 105.053 20.5355C105.186 20.3544 105.252 20.1411 105.252 19.8956C105.252 19.5374 105.105 19.2577 104.811 19.0565C104.517 18.8552 104.115 18.7546 103.604 18.7546H101.455V21.0909Z" fill="#E8E8E8"/>
<path d="M125.158 18.6158H122.14C122.1 18.3059 122.017 18.0262 121.892 17.7766C121.768 17.5271 121.603 17.3138 121.397 17.1367C121.192 16.9596 120.949 16.8248 120.667 16.7322C120.389 16.6357 120.081 16.5874 119.743 16.5874C119.144 16.5874 118.626 16.7343 118.192 17.0281C117.761 17.3218 117.429 17.7464 117.196 18.3018C116.966 18.8572 116.852 19.5294 116.852 20.3182C116.852 21.1392 116.968 21.8274 117.202 22.3828C117.439 22.9342 117.771 23.3507 118.198 23.6325C118.628 23.9102 119.138 24.049 119.725 24.049C120.055 24.049 120.355 24.0067 120.625 23.9222C120.898 23.8377 121.138 23.715 121.343 23.554C121.552 23.389 121.723 23.1897 121.856 22.9563C121.993 22.7189 122.088 22.4512 122.14 22.1534L125.158 22.1715C125.106 22.7189 124.947 23.2582 124.681 23.7894C124.42 24.3207 124.06 24.8056 123.601 25.2443C123.142 25.679 122.583 26.0251 121.923 26.2827C121.267 26.5402 120.514 26.669 119.665 26.669C118.546 26.669 117.544 26.4235 116.658 25.9325C115.777 25.4375 115.081 24.7171 114.57 23.7713C114.058 22.8255 113.803 21.6745 113.803 20.3182C113.803 18.9579 114.062 17.8048 114.582 16.859C115.101 15.9132 115.803 15.1948 116.689 14.7038C117.574 14.2128 118.566 13.9673 119.665 13.9673C120.413 13.9673 121.106 14.072 121.741 14.2812C122.377 14.4865 122.937 14.7883 123.42 15.1868C123.903 15.5812 124.295 16.0662 124.597 16.6417C124.899 17.2172 125.086 17.8752 125.158 18.6158ZM132.851 22.4975V17.2273H135.797V26.5H132.984V24.7734H132.887C132.682 25.3409 132.332 25.7917 131.837 26.1257C131.346 26.4557 130.752 26.6207 130.056 26.6207C129.424 26.6207 128.869 26.4758 128.39 26.1861C127.911 25.8963 127.538 25.4918 127.273 24.9727C127.007 24.4495 126.872 23.8377 126.868 23.1374V17.2273H129.82V22.5579C129.824 23.061 129.957 23.4574 130.219 23.7472C130.48 24.0369 130.837 24.1818 131.287 24.1818C131.581 24.1818 131.845 24.1174 132.078 23.9886C132.316 23.8558 132.503 23.6646 132.64 23.4151C132.781 23.1616 132.851 22.8557 132.851 22.4975ZM137.676 26.5V17.2273H140.543V18.9176H140.64C140.809 18.3059 141.085 17.8511 141.467 17.5533C141.849 17.2514 142.294 17.1005 142.801 17.1005C142.938 17.1005 143.079 17.1106 143.224 17.1307C143.369 17.1468 143.504 17.1729 143.628 17.2092V19.7749C143.488 19.7266 143.302 19.6883 143.073 19.6602C142.848 19.632 142.646 19.6179 142.469 19.6179C142.119 19.6179 141.803 19.6964 141.521 19.8533C141.244 20.0063 141.024 20.2216 140.863 20.4993C140.706 20.773 140.628 21.0949 140.628 21.4652V26.5H137.676ZM152.927 20.0586L150.216 20.131C150.188 19.9379 150.112 19.7668 149.987 19.6179C149.862 19.465 149.699 19.3462 149.498 19.2617C149.301 19.1732 149.071 19.1289 148.81 19.1289C148.467 19.1289 148.176 19.1973 147.934 19.3342C147.697 19.471 147.58 19.6561 147.584 19.8896C147.58 20.0707 147.652 20.2276 147.801 20.3604C147.954 20.4932 148.226 20.5999 148.616 20.6804L150.403 21.0185C151.329 21.1955 152.017 21.4893 152.468 21.8999C152.923 22.3104 153.152 22.8537 153.156 23.5298C153.152 24.1657 152.963 24.7191 152.589 25.19C152.218 25.6609 151.711 26.0271 151.067 26.2887C150.423 26.5463 149.687 26.6751 148.858 26.6751C147.534 26.6751 146.489 26.4034 145.725 25.8601C144.964 25.3127 144.529 24.5803 144.421 23.6626L147.337 23.5902C147.401 23.9283 147.568 24.1858 147.838 24.3629C148.107 24.54 148.451 24.6285 148.87 24.6285C149.248 24.6285 149.556 24.5581 149.794 24.4173C150.031 24.2764 150.152 24.0892 150.156 23.8558C150.152 23.6465 150.059 23.4795 149.878 23.3548C149.697 23.226 149.413 23.1254 149.027 23.0529L147.409 22.745C146.479 22.576 145.787 22.2641 145.332 21.8093C144.878 21.3505 144.652 20.7669 144.656 20.0586C144.652 19.4388 144.817 18.9096 145.151 18.4709C145.485 18.0282 145.96 17.6901 146.576 17.4567C147.192 17.2232 147.918 17.1065 148.755 17.1065C150.011 17.1065 151.001 17.3701 151.725 17.8974C152.45 18.4206 152.85 19.141 152.927 20.0586ZM158.944 26.6751C157.974 26.6751 157.137 26.4839 156.433 26.1016C155.732 25.7152 155.193 25.1658 154.815 24.4535C154.441 23.7371 154.253 22.8859 154.253 21.8999C154.253 20.942 154.443 20.1049 154.821 19.3885C155.199 18.6681 155.732 18.1087 156.421 17.7102C157.109 17.3078 157.92 17.1065 158.854 17.1065C159.514 17.1065 160.117 17.2092 160.665 17.4144C161.212 17.6197 161.685 17.9235 162.083 18.326C162.482 18.7285 162.792 19.2255 163.013 19.8171C163.234 20.4047 163.345 21.0788 163.345 21.8395V22.576H155.286V20.8615H160.598C160.594 20.5476 160.52 20.2679 160.375 20.0224C160.23 19.7769 160.031 19.5857 159.777 19.4489C159.528 19.308 159.24 19.2376 158.914 19.2376C158.584 19.2376 158.288 19.312 158.026 19.4609C157.765 19.6058 157.558 19.805 157.405 20.0586C157.252 20.3081 157.171 20.5919 157.163 20.9098V22.6545C157.163 23.0328 157.238 23.3648 157.387 23.6506C157.535 23.9323 157.747 24.1516 158.02 24.3086C158.294 24.4655 158.62 24.544 158.998 24.544C159.26 24.544 159.497 24.5078 159.711 24.4354C159.924 24.3629 160.107 24.2563 160.26 24.1154C160.413 23.9745 160.528 23.8015 160.604 23.5962L163.315 23.6747C163.202 24.2824 162.955 24.8117 162.572 25.2624C162.194 25.7092 161.697 26.0573 161.081 26.3068C160.465 26.5523 159.753 26.6751 158.944 26.6751ZM164.853 26.5V14.1364H173.292V16.5632H167.841V19.0987H172.755V21.5316H167.841V26.5H164.853ZM178.445 26.6751C177.471 26.6751 176.634 26.4758 175.933 26.0774C175.237 25.6749 174.7 25.1155 174.322 24.3991C173.947 23.6787 173.76 22.8436 173.76 21.8938C173.76 20.94 173.947 20.1049 174.322 19.3885C174.7 18.6681 175.237 18.1087 175.933 17.7102C176.634 17.3078 177.471 17.1065 178.445 17.1065C179.419 17.1065 180.254 17.3078 180.95 17.7102C181.65 18.1087 182.188 18.6681 182.562 19.3885C182.94 20.1049 183.13 20.94 183.13 21.8938C183.13 22.8436 182.94 23.6787 182.562 24.3991C182.188 25.1155 181.65 25.6749 180.95 26.0774C180.254 26.4758 179.419 26.6751 178.445 26.6751ZM178.463 24.4474C178.817 24.4474 179.117 24.3388 179.362 24.1214C179.608 23.9041 179.795 23.6023 179.924 23.2159C180.057 22.8295 180.123 22.3828 180.123 21.8757C180.123 21.3606 180.057 20.9098 179.924 20.5234C179.795 20.1371 179.608 19.8352 179.362 19.6179C179.117 19.4006 178.817 19.2919 178.463 19.2919C178.097 19.2919 177.787 19.4006 177.533 19.6179C177.284 19.8352 177.093 20.1371 176.96 20.5234C176.831 20.9098 176.767 21.3606 176.767 21.8757C176.767 22.3828 176.831 22.8295 176.96 23.2159C177.093 23.6023 177.284 23.9041 177.533 24.1214C177.787 24.3388 178.097 24.4474 178.463 24.4474ZM184.642 26.5V17.2273H187.509V18.9176H187.606C187.775 18.3059 188.051 17.8511 188.433 17.5533C188.815 17.2514 189.26 17.1005 189.767 17.1005C189.904 17.1005 190.045 17.1106 190.19 17.1307C190.335 17.1468 190.469 17.1729 190.594 17.2092V19.7749C190.453 19.7266 190.268 19.6883 190.039 19.6602C189.813 19.632 189.612 19.6179 189.435 19.6179C189.085 19.6179 188.769 19.6964 188.487 19.8533C188.21 20.0063 187.99 20.2216 187.829 20.4993C187.672 20.773 187.594 21.0949 187.594 21.4652V26.5H184.642ZM195.638 30.1704C194.757 30.1704 194.002 30.0477 193.374 29.8022C192.746 29.5567 192.253 29.2206 191.895 28.794C191.537 28.3674 191.322 27.8845 191.249 27.3452L194.044 27.1882C194.097 27.3774 194.193 27.5424 194.334 27.6832C194.479 27.8241 194.666 27.9328 194.895 28.0092C195.129 28.0857 195.403 28.1239 195.717 28.1239C196.212 28.1239 196.62 28.0032 196.942 27.7617C197.268 27.5243 197.431 27.1077 197.431 26.5121V24.8821H197.328C197.212 25.1678 197.035 25.4234 196.797 25.6488C196.56 25.8742 196.264 26.0512 195.91 26.18C195.56 26.3088 195.157 26.3732 194.702 26.3732C194.026 26.3732 193.406 26.2163 192.843 25.9023C192.284 25.5844 191.835 25.0934 191.497 24.4293C191.163 23.7612 190.996 22.902 190.996 21.8516C190.996 20.7689 191.169 19.8775 191.515 19.1772C191.861 18.4729 192.314 17.9517 192.873 17.6136C193.437 17.2756 194.042 17.1065 194.69 17.1065C195.177 17.1065 195.594 17.191 195.94 17.3601C196.29 17.5251 196.578 17.7384 196.803 18C197.029 18.2616 197.2 18.5333 197.316 18.815H197.401V17.2273H200.341V26.5362C200.341 27.321 200.144 27.9831 199.749 28.5224C199.355 29.0617 198.803 29.4702 198.095 29.7479C197.387 30.0296 196.568 30.1704 195.638 30.1704ZM195.729 24.2241C196.087 24.2241 196.393 24.1295 196.646 23.9403C196.9 23.7512 197.095 23.4795 197.232 23.1254C197.369 22.7712 197.437 22.3466 197.437 21.8516C197.437 21.3485 197.369 20.9158 197.232 20.5536C197.099 20.1874 196.904 19.9057 196.646 19.7084C196.393 19.5112 196.087 19.4126 195.729 19.4126C195.362 19.4126 195.052 19.5133 194.799 19.7145C194.545 19.9157 194.352 20.1995 194.219 20.5657C194.091 20.9279 194.026 21.3565 194.026 21.8516C194.026 22.3466 194.093 22.7712 194.225 23.1254C194.358 23.4795 194.549 23.7512 194.799 23.9403C195.052 24.1295 195.362 24.2241 195.729 24.2241ZM206.557 26.6751C205.587 26.6751 204.75 26.4839 204.046 26.1016C203.346 25.7152 202.806 25.1658 202.428 24.4535C202.054 23.7371 201.867 22.8859 201.867 21.8999C201.867 20.942 202.056 20.1049 202.434 19.3885C202.812 18.6681 203.346 18.1087 204.034 17.7102C204.722 17.3078 205.533 17.1065 206.467 17.1065C207.127 17.1065 207.73 17.2092 208.278 17.4144C208.825 17.6197 209.298 17.9235 209.697 18.326C210.095 18.7285 210.405 19.2255 210.626 19.8171C210.848 20.4047 210.958 21.0788 210.958 21.8395V22.576H202.899V20.8615H208.211C208.207 20.5476 208.133 20.2679 207.988 20.0224C207.843 19.7769 207.644 19.5857 207.39 19.4489C207.141 19.308 206.853 19.2376 206.527 19.2376C206.197 19.2376 205.901 19.312 205.64 19.4609C205.378 19.6058 205.171 19.805 205.018 20.0586C204.865 20.3081 204.784 20.5919 204.776 20.9098V22.6545C204.776 23.0328 204.851 23.3648 205 23.6506C205.149 23.9323 205.36 24.1516 205.634 24.3086C205.907 24.4655 206.233 24.544 206.612 24.544C206.873 24.544 207.111 24.5078 207.324 24.4354C207.537 24.3629 207.72 24.2563 207.873 24.1154C208.026 23.9745 208.141 23.8015 208.217 23.5962L210.928 23.6747C210.815 24.2824 210.568 24.8117 210.186 25.2624C209.807 25.7092 209.31 26.0573 208.694 26.3068C208.079 26.5523 207.366 26.6751 206.557 26.6751Z" fill="#F16436"/>
</g>
<defs>
<filter id="filter0_d_24_12" x="2.28571" y="0.285715" width="39.4286" height="39.4286" filterUnits="userSpaceOnUse" color-interpolation-filters="sRGB">
<feFlood flood-opacity="0" result="BackgroundImageFix"/>
<feColorMatrix in="SourceAlpha" type="matrix" values="0 0 0 0 0 0 0 0 0 0 0 0 0 0 0 0 0 0 127 0" result="hardAlpha"/>
<feOffset/>
<feGaussianBlur stdDeviation="2.85714"/>
<feComposite in2="hardAlpha" operator="out"/>
<feColorMatrix type="matrix" values="0 0 0 0 0 0 0 0 0 0 0 0 0 0 0 0 0 0 0.25 0"/>
<feBlend mode="normal" in2="BackgroundImageFix" result="effect1_dropShadow_24_12"/>
<feBlend mode="normal" in="SourceGraphic" in2="effect1_dropShadow_24_12" result="shape"/>
</filter>
<filter id="filter1_d_24_12" x="36.2857" y="3.78571" width="181.429" height="32.4286" filterUnits="userSpaceOnUse" color-interpolation-filters="sRGB">
<feFlood flood-opacity="0" result="BackgroundImageFix"/>
<feColorMatrix in="SourceAlpha" type="matrix" values="0 0 0 0 0 0 0 0 0 0 0 0 0 0 0 0 0 0 127 0" result="hardAlpha"/>
<feOffset/>
<feGaussianBlur stdDeviation="2.85714"/>
<feComposite in2="hardAlpha" operator="out"/>
<feColorMatrix type="matrix" values="0 0 0 0 0 0 0 0 0 0 0 0 0 0 0 0 0 0 0.25 0"/>
<feBlend mode="normal" in2="BackgroundImageFix" result="effect1_dropShadow_24_12"/>
<feBlend mode="normal" in="SourceGraphic" in2="effect1_dropShadow_24_12" result="shape"/>
</filter>
<linearGradient id="paint0_linear_24_12" x1="110" y1="0" x2="110" y2="40" gradientUnits="userSpaceOnUse">
<stop stop-color="#2E140B"/>
<stop offset="1" stop-color="#1E0C07"/>
</linearGradient>
</defs>
</svg>
