<svg width="199" height="40" viewBox="0 0 199 40" fill="none" xmlns="http://www.w3.org/2000/svg">
<rect width="199.001" height="40.0014" rx="8" fill="url(#paint0_linear_22_2)"/>
<rect x="1.07143" y="1.07143" width="196.858" height="37.8585" rx="6.92857" stroke="white" stroke-opacity="0.15" stroke-width="2.14286"/>
<g filter="url(#filter0_d_22_2)">
<path d="M20.6081 6.07942C15.777 6.55928 11.5825 9.4571 9.41039 13.8194C8.68635 15.2715 8.19949 16.9416 8.03721 18.5245L7.99976 18.8859H9.24811C9.9347 18.8859 10.4965 18.8672 10.5027 18.8361C10.5714 17.8203 11.0208 16.2249 11.5638 15.0845C13.4925 11.0462 17.5059 8.50986 21.9501 8.50986C23.8351 8.50986 25.433 8.87754 27.0683 9.68768C28.9283 10.61 30.4201 11.9187 31.5624 13.62C32.0679 14.3741 32.767 15.7513 32.6796 15.8261C32.6484 15.8572 32.1491 16.0068 31.5748 16.1564L30.5262 16.4368L30.2516 15.9009C29.3653 14.131 27.886 12.6478 26.1383 11.7691C25.5079 11.4513 24.8587 11.2083 24.7589 11.2457C24.7152 11.2581 24.659 11.4077 24.6403 11.5759C24.6153 11.738 24.5466 12.168 24.478 12.5294C24.4156 12.8909 24.3469 13.2897 24.3282 13.4143L24.2845 13.6449L24.815 13.8942C26.6376 14.7417 27.9546 16.3122 28.5101 18.2939C28.6724 18.8672 28.6912 18.9981 28.6912 20.0077C28.6912 21.0172 28.6724 21.1481 28.5101 21.7215C28.1793 22.893 27.5926 23.9275 26.7874 24.7377C26.3255 25.2051 25.6452 25.7099 25.1521 25.9654C24.9836 26.0464 24.8525 26.1523 24.8525 26.1959C24.8587 26.3019 25.4517 28.483 25.4954 28.5204C25.5516 28.5765 26.6064 28.0157 27.2243 27.6044C27.9983 27.0871 29.0719 26.0152 29.59 25.2425C30.314 24.1581 30.7634 23.1174 31.0443 21.871C31.1629 21.3226 31.1879 21.0422 31.1879 20.0264C31.1879 19.0168 31.2003 18.8236 31.2815 18.8049C32.043 18.5868 33.36 18.2628 33.385 18.2815C33.4286 18.3313 33.4973 19.372 33.4973 20.0077C33.4973 20.8677 33.4162 21.709 33.2788 22.3135C33.2164 22.6001 33.1665 22.8432 33.1727 22.8494C33.179 22.8619 33.7033 23.0488 34.3337 23.2794C35.2075 23.5972 35.4947 23.6783 35.5321 23.6159C35.632 23.4477 35.9004 21.8025 35.969 20.9238C36.1126 18.9607 35.7693 16.7048 35.0515 14.9287C33.0292 9.92449 28.61 6.59667 23.292 6.07942C22.2247 5.97348 21.6629 5.97348 20.6081 6.07942Z" fill="#00D845"/>
<path d="M20.9202 10.8281C20.4645 10.8717 19.4471 11.1148 18.9291 11.2955C16.3762 12.1929 14.2727 14.2432 13.324 16.7671C12.5874 18.7177 12.5625 21.1668 13.2616 23.08L13.4176 23.5038L12.8434 23.8341C11.6949 24.5009 11.4889 24.6193 11.4452 24.6193C11.389 24.6193 11.1144 23.9275 10.9396 23.3417C10.7399 22.6438 10.5277 21.6342 10.5027 21.1731C10.4965 21.1481 9.9347 21.1294 9.24811 21.1294H7.99976L8.03721 21.4846C8.36802 24.7065 9.85356 27.7477 12.2192 30.0473C17.7681 35.4316 26.6251 35.3007 32.0367 29.7544C32.7483 29.019 33.4536 28.1154 33.953 27.2928C34.3836 26.5761 34.7144 25.9031 34.6645 25.8532C34.6395 25.8283 34.3399 25.7099 33.9966 25.5852C33.6533 25.4606 33.1915 25.2923 32.9668 25.2175C32.7421 25.1365 32.5173 25.0493 32.4674 25.0306C32.3988 25.0057 32.3114 25.1116 32.1366 25.4481C31.088 27.4922 29.1281 29.3493 26.9123 30.4087C25.021 31.3061 23.0985 31.6426 20.8203 31.4619C18.592 31.2874 16.1078 30.1906 14.3039 28.589C13.7921 28.1341 13.0493 27.3364 12.7685 26.9375C12.6748 26.8004 12.6249 26.8378 14.073 25.9965L14.616 25.6787L15.3837 26.4452C16.7569 27.8225 18.23 28.6326 20.115 29.0564C20.6705 29.1748 20.9389 29.1997 21.9626 29.1997C22.6179 29.1997 23.1735 29.181 23.1922 29.1623C23.2171 29.1436 23.1173 28.7074 22.98 28.1964C22.8426 27.6854 22.6991 27.1557 22.6616 27.0123L22.593 26.7568L21.7129 26.7194C20.0526 26.6509 18.7356 26.1274 17.4997 25.0431C17.2937 24.8623 17.0628 24.638 16.9941 24.5507L16.8693 24.3887L18.2487 23.591L19.6344 22.7996L21.0825 24.3326L22.749 23.9899L24.4156 23.6533L26.6626 21.4099L26.4629 20.6745C26.338 20.2071 26.2381 19.9454 26.1882 19.9454C26.1383 19.9454 25.6327 20.07 25.0585 20.2258L24.0098 20.5125L23.5729 20.9362C23.0985 21.3974 23.1672 21.3787 22.1373 21.4722L21.7628 21.5096L21.3134 21.0671C21.0637 20.8303 20.8578 20.6184 20.8578 20.606C20.8578 20.5873 20.7891 20.3255 20.708 20.0139L20.5582 19.4468L20.9639 18.9046C21.1886 18.5993 21.3821 18.35 21.3946 18.3375C21.4008 18.3251 21.6692 18.2441 21.9938 18.1631L22.5742 18.0135L23.3669 17.222C23.8101 16.7858 24.1659 16.3994 24.1659 16.362C24.1659 16.3246 23.9287 16.0629 23.6416 15.7762L23.1173 15.259L21.6005 15.6703L20.0775 16.0816L19.7655 16.4057C19.5969 16.5864 19.2411 16.9728 18.9852 17.2657C18.7293 17.5523 18.4048 17.92 18.2674 18.0758C17.7369 18.6741 17.7556 18.4933 18.0864 19.6275C18.2425 20.1822 18.3673 20.6496 18.3548 20.6558C18.3236 20.6807 17.0316 21.4348 16.2326 21.8835C15.933 22.0517 15.6646 22.1889 15.6272 22.1889C15.596 22.1889 15.5023 21.9271 15.4212 21.6093C15.2901 21.117 15.2714 20.8926 15.2714 19.9765C15.2776 19.0106 15.2901 18.861 15.4524 18.2939C15.7895 17.0974 16.3699 16.0941 17.2063 15.259C18.3548 14.1123 19.8653 13.4081 21.4008 13.3022C22.0499 13.2523 22 13.3022 22.1061 12.6229C22.1436 12.3799 22.1997 12.0745 22.2309 11.9374C22.2622 11.8003 22.2996 11.576 22.3183 11.4388C22.3433 11.3017 22.3745 11.0961 22.3932 10.9839L22.4307 10.7845L21.7878 10.797C21.432 10.797 21.0388 10.8157 20.9202 10.8281Z" fill="#00D845"/>
</g>
<g filter="url(#filter1_d_22_2)">
<path d="M53.0249 14.1371V26.5007H51.1655V15.7308H45.3459V26.5007H43.4865V14.1371H53.0249ZM59.6384 26.6878C58.769 26.6878 58.0104 26.4886 57.3624 26.0902C56.7145 25.6917 56.2114 25.1343 55.8532 24.418C55.495 23.7016 55.3159 22.8645 55.3159 21.9066C55.3159 20.9447 55.495 20.1036 55.8532 19.3832C56.2114 18.6627 56.7145 18.1033 57.3624 17.7049C58.0104 17.3065 58.769 17.1072 59.6384 17.1072C60.5077 17.1072 61.2663 17.3065 61.9143 17.7049C62.5622 18.1033 63.0653 18.6627 63.4235 19.3832C63.7817 20.1036 63.9608 20.9447 63.9608 21.9066C63.9608 22.8645 63.7817 23.7016 63.4235 24.418C63.0653 25.1343 62.5622 25.6917 61.9143 26.0902C61.2663 26.4886 60.5077 26.6878 59.6384 26.6878ZM59.6444 25.1726C60.2078 25.1726 60.6747 25.0237 61.045 24.7258C61.4152 24.428 61.6889 24.0316 61.866 23.5366C62.0471 23.0415 62.1376 22.4962 62.1376 21.9006C62.1376 21.3089 62.0471 20.7656 61.866 20.2706C61.6889 19.7715 61.4152 19.3711 61.045 19.0692C60.6747 18.7674 60.2078 18.6165 59.6444 18.6165C59.0769 18.6165 58.606 18.7674 58.2318 19.0692C57.8615 19.3711 57.5858 19.7715 57.4047 20.2706C57.2276 20.7656 57.1391 21.3089 57.1391 21.9006C57.1391 22.4962 57.2276 23.0415 57.4047 23.5366C57.5858 24.0316 57.8615 24.428 58.2318 24.7258C58.606 25.0237 59.0769 25.1726 59.6444 25.1726ZM67.7444 23.9712L71.8314 17.228H73.7753V26.5007H72.0065V19.7514L67.9376 26.5007H65.9756V17.228H67.7444V23.9712ZM80.1081 26.6878C79.2106 26.6878 78.4379 26.4846 77.7899 26.0781C77.146 25.6676 76.6509 25.1021 76.3048 24.3817C75.9587 23.6613 75.7856 22.8363 75.7856 21.9066C75.7856 20.9648 75.9627 20.1337 76.3169 19.4133C76.6711 18.6889 77.1701 18.1234 77.814 17.717C78.458 17.3105 79.2166 17.1072 80.09 17.1072C80.7943 17.1072 81.4221 17.238 81.9735 17.4996C82.5249 17.7572 82.9696 18.1194 83.3076 18.5863C83.6497 19.0531 83.853 19.5985 83.9174 20.2223H82.1606C82.064 19.7876 81.8427 19.4133 81.4966 19.0994C81.1545 18.7855 80.6957 18.6285 80.1202 18.6285C79.6171 18.6285 79.1764 18.7614 78.7981 19.027C78.4238 19.2886 78.132 19.6629 77.9227 20.1498C77.7134 20.6328 77.6088 21.2043 77.6088 21.8643C77.6088 22.5405 77.7114 23.124 77.9167 23.615C78.1219 24.106 78.4117 24.4864 78.786 24.756C79.1643 25.0257 79.609 25.1605 80.1202 25.1605C80.4622 25.1605 80.7721 25.0981 81.0498 24.9734C81.3316 24.8446 81.567 24.6614 81.7562 24.424C81.9493 24.1865 82.0842 23.9008 82.1606 23.5667H83.9174C83.853 24.1664 83.6578 24.7017 83.3318 25.1726C83.0058 25.6435 82.5691 26.0137 82.0218 26.2834C81.4785 26.553 80.8406 26.6878 80.1081 26.6878ZM85.8477 26.5007V17.228H87.6527V21.1158H88.522L91.5828 17.228H93.8164L90.2245 21.7376L93.8587 26.5007H91.619L88.8239 22.794H87.6527V26.5007H85.8477ZM99.7598 26.5007V17.228H103.605C104.652 17.228 105.481 17.4513 106.093 17.8981C106.704 18.3408 107.01 18.9425 107.01 19.7031C107.01 20.2464 106.837 20.6771 106.491 20.995C106.145 21.313 105.686 21.5263 105.115 21.6349C105.529 21.6832 105.909 21.808 106.256 22.0092C106.602 22.2064 106.879 22.4721 107.089 22.8061C107.302 23.1401 107.409 23.5386 107.409 24.0014C107.409 24.4924 107.282 24.9271 107.028 25.3054C106.775 25.6797 106.406 25.9735 105.923 26.1868C105.445 26.3961 104.867 26.5007 104.191 26.5007H99.7598ZM101.456 24.9915H104.191C104.638 24.9915 104.988 24.8848 105.241 24.6715C105.495 24.4582 105.622 24.1684 105.622 23.8022C105.622 23.3716 105.495 23.0335 105.241 22.788C104.988 22.5385 104.638 22.4137 104.191 22.4137H101.456V24.9915ZM101.456 21.0916H103.623C103.961 21.0916 104.251 21.0433 104.493 20.9467C104.738 20.8501 104.925 20.7133 105.054 20.5362C105.187 20.3551 105.253 20.1418 105.253 19.8963C105.253 19.5381 105.107 19.2584 104.813 19.0572C104.519 18.8559 104.116 18.7553 103.605 18.7553H101.456V21.0916Z" fill="#E8E8E8"/>
<path d="M113.937 14.1371H117.638L120.777 21.7919H120.922L124.061 14.1371H127.762V26.5007H124.852V18.9062H124.749L121.779 26.4222H119.92L116.95 18.864H116.847V26.5007H113.937V14.1371ZM133.954 26.6758C132.98 26.6758 132.143 26.4765 131.443 26.0781C130.747 25.6756 130.209 25.1162 129.831 24.3998C129.457 23.6794 129.269 22.8443 129.269 21.8945C129.269 20.9407 129.457 20.1056 129.831 19.3892C130.209 18.6688 130.747 18.1094 131.443 17.7109C132.143 17.3085 132.98 17.1072 133.954 17.1072C134.928 17.1072 135.763 17.3085 136.459 17.7109C137.16 18.1094 137.697 18.6688 138.071 19.3892C138.45 20.1056 138.639 20.9407 138.639 21.8945C138.639 22.8443 138.45 23.6794 138.071 24.3998C137.697 25.1162 137.16 25.6756 136.459 26.0781C135.763 26.4765 134.928 26.6758 133.954 26.6758ZM133.972 24.4481C134.326 24.4481 134.626 24.3395 134.872 24.1221C135.117 23.9048 135.304 23.603 135.433 23.2166C135.566 22.8302 135.632 22.3835 135.632 21.8764C135.632 21.3613 135.566 20.9105 135.433 20.5241C135.304 20.1378 135.117 19.8359 134.872 19.6186C134.626 19.4013 134.326 19.2926 133.972 19.2926C133.606 19.2926 133.296 19.4013 133.043 19.6186C132.793 19.8359 132.602 20.1378 132.469 20.5241C132.34 20.9105 132.276 21.3613 132.276 21.8764C132.276 22.3835 132.34 22.8302 132.469 23.2166C132.602 23.603 132.793 23.9048 133.043 24.1221C133.296 24.3395 133.606 24.4481 133.972 24.4481ZM143.538 26.6335C142.854 26.6335 142.232 26.4564 141.672 26.1023C141.113 25.7481 140.666 25.2168 140.332 24.5085C139.998 23.8002 139.831 22.9208 139.831 21.8704C139.831 20.7797 140.004 19.8822 140.35 19.1779C140.696 18.4736 141.149 17.9524 141.709 17.6143C142.272 17.2763 142.878 17.1072 143.526 17.1072C144.013 17.1072 144.429 17.1918 144.775 17.3608C145.121 17.5258 145.407 17.7391 145.633 18.0007C145.858 18.2623 146.029 18.534 146.146 18.8157H146.206V14.1371H149.158V26.5007H146.236V24.9975H146.146C146.021 25.2832 145.844 25.5509 145.614 25.8004C145.385 26.0499 145.097 26.2512 144.751 26.4041C144.409 26.557 144.005 26.6335 143.538 26.6335ZM144.564 24.3334C144.922 24.3334 145.228 24.2328 145.482 24.0316C145.735 23.8263 145.93 23.5386 146.067 23.1683C146.204 22.798 146.272 22.3634 146.272 21.8643C146.272 21.3572 146.204 20.9206 146.067 20.5543C145.934 20.1881 145.739 19.9064 145.482 19.7092C145.228 19.5119 144.922 19.4133 144.564 19.4133C144.198 19.4133 143.888 19.514 143.634 19.7152C143.381 19.9164 143.188 20.2002 143.055 20.5664C142.926 20.9326 142.862 21.3653 142.862 21.8643C142.862 22.3634 142.928 22.798 143.061 23.1683C143.194 23.5386 143.385 23.8263 143.634 24.0316C143.888 24.2328 144.198 24.3334 144.564 24.3334ZM151.025 26.5007V17.228H153.893V18.9183H153.989C154.158 18.3066 154.434 17.8518 154.816 17.554C155.199 17.2521 155.643 17.1012 156.15 17.1012C156.287 17.1012 156.428 17.1113 156.573 17.1314C156.718 17.1475 156.853 17.1736 156.977 17.2099V19.7756C156.837 19.7273 156.651 19.689 156.422 19.6609C156.197 19.6327 155.995 19.6186 155.818 19.6186C155.468 19.6186 155.152 19.6971 154.871 19.854C154.593 20.007 154.374 20.2223 154.213 20.5C154.056 20.7737 153.977 21.0956 153.977 21.4659V26.5007H151.025ZM158.18 26.5007V17.228H161.132V26.5007H158.18ZM159.659 16.1474C159.245 16.1474 158.889 16.0105 158.591 15.7369C158.293 15.4592 158.144 15.1251 158.144 14.7347C158.144 14.3484 158.293 14.0183 158.591 13.7447C158.889 13.467 159.245 13.3281 159.659 13.3281C160.078 13.3281 160.434 13.467 160.728 13.7447C161.026 14.0183 161.175 14.3484 161.175 14.7347C161.175 15.1251 161.026 15.4592 160.728 15.7369C160.434 16.0105 160.078 16.1474 159.659 16.1474ZM165.963 21.2123V26.5007H163.011V17.228H165.819V18.9304H165.921C166.126 18.3629 166.477 17.9182 166.972 17.5962C167.467 17.2702 168.056 17.1072 168.74 17.1072C169.392 17.1072 169.958 17.2541 170.437 17.5479C170.92 17.8377 171.294 18.2442 171.56 18.7674C171.829 19.2866 171.962 19.8943 171.958 20.5905V26.5007H169.006V21.1701C169.01 20.6549 168.879 20.2525 168.614 19.9627C168.352 19.6729 167.988 19.528 167.521 19.528C167.211 19.528 166.937 19.5965 166.7 19.7333C166.467 19.8661 166.285 20.0573 166.157 20.3068C166.032 20.5563 165.967 20.8582 165.963 21.2123ZM179.02 17.228V19.4013H173.17V17.228H179.02ZM174.396 15.0064H177.348V23.5849C177.348 23.766 177.376 23.9129 177.432 24.0256C177.492 24.1342 177.579 24.2127 177.692 24.261C177.804 24.3053 177.939 24.3274 178.096 24.3274C178.209 24.3274 178.328 24.3173 178.452 24.2972C178.581 24.2731 178.678 24.2529 178.742 24.2368L179.189 26.3679C179.048 26.4081 178.849 26.4584 178.591 26.5188C178.338 26.5792 178.034 26.6174 177.68 26.6335C176.987 26.6657 176.394 26.5852 175.899 26.392C175.408 26.1948 175.031 25.889 174.77 25.4744C174.512 25.0599 174.387 24.5387 174.396 23.9109V15.0064ZM183.677 21.2123V26.5007H180.725V14.1371H183.581V18.9304H183.683C183.893 18.3589 184.235 17.9122 184.71 17.5902C185.189 17.2682 185.774 17.1072 186.466 17.1072C187.118 17.1072 187.686 17.2521 188.169 17.5419C188.652 17.8276 189.026 18.2321 189.292 18.7553C189.561 19.2785 189.694 19.8903 189.69 20.5905V26.5007H186.738V21.1701C186.742 20.6549 186.613 20.2525 186.352 19.9627C186.09 19.6729 185.722 19.528 185.247 19.528C184.937 19.528 184.663 19.5965 184.426 19.7333C184.192 19.8661 184.009 20.0573 183.877 20.3068C183.748 20.5563 183.681 20.8582 183.677 21.2123Z" fill="#00D845"/>
</g>
<defs>
<filter id="filter0_d_22_2" x="2.39948" y="0.399674" width="39.2023" height="39.202" filterUnits="userSpaceOnUse" color-interpolation-filters="sRGB">
<feFlood flood-opacity="0" result="BackgroundImageFix"/>
<feColorMatrix in="SourceAlpha" type="matrix" values="0 0 0 0 0 0 0 0 0 0 0 0 0 0 0 0 0 0 127 0" result="hardAlpha"/>
<feOffset/>
<feGaussianBlur stdDeviation="2.80014"/>
<feComposite in2="hardAlpha" operator="out"/>
<feColorMatrix type="matrix" values="0 0 0 0 0 0 0 0 0 0 0 0 0 0 0 0 0 0 0.25 0"/>
<feBlend mode="normal" in2="BackgroundImageFix" result="effect1_dropShadow_22_2"/>
<feBlend mode="normal" in="SourceGraphic" in2="effect1_dropShadow_22_2" result="shape"/>
</filter>
<filter id="filter1_d_22_2" x="36.2872" y="3.78642" width="160.429" height="32.4286" filterUnits="userSpaceOnUse" color-interpolation-filters="sRGB">
<feFlood flood-opacity="0" result="BackgroundImageFix"/>
<feColorMatrix in="SourceAlpha" type="matrix" values="0 0 0 0 0 0 0 0 0 0 0 0 0 0 0 0 0 0 127 0" result="hardAlpha"/>
<feOffset/>
<feGaussianBlur stdDeviation="2.85714"/>
<feComposite in2="hardAlpha" operator="out"/>
<feColorMatrix type="matrix" values="0 0 0 0 0 0 0 0 0 0 0 0 0 0 0 0 0 0 0.25 0"/>
<feBlend mode="normal" in2="BackgroundImageFix" result="effect1_dropShadow_22_2"/>
<feBlend mode="normal" in="SourceGraphic" in2="effect1_dropShadow_22_2" result="shape"/>
</filter>
<linearGradient id="paint0_linear_22_2" x1="99.5007" y1="0" x2="99.5007" y2="40.0014" gradientUnits="userSpaceOnUse">
<stop stop-color="#072C13"/>
<stop offset="1" stop-color="#041C0B"/>
</linearGradient>
</defs>
</svg>
